<mxfile host="app.diagrams.net" modified="2020-08-25T02:08:01.778Z" agent="5.0 (Macintosh; Intel Mac OS X 10_15_5) AppleWebKit/537.36 (KHTML, like Gecko) Chrome/84.0.4147.135 Safari/537.36" etag="yqA0C7ahXEo0I5DPU8sP" version="13.6.5" type="github">
  <diagram id="Q96ozdOJ_pWK0FEXUFN_" name="Page-1">
    <mxGraphModel dx="2083" dy="843" grid="1" gridSize="10" guides="1" tooltips="1" connect="1" arrows="1" fold="1" page="1" pageScale="1" pageWidth="827" pageHeight="1169" math="0" shadow="0">
      <root>
        <mxCell id="0" />
        <mxCell id="1" parent="0" />
        <mxCell id="vSkpdnjfzL6lSjrzOQnd-3" value="" style="edgeStyle=orthogonalEdgeStyle;rounded=0;orthogonalLoop=1;jettySize=auto;html=1;" edge="1" parent="1" source="vSkpdnjfzL6lSjrzOQnd-1" target="vSkpdnjfzL6lSjrzOQnd-2">
          <mxGeometry relative="1" as="geometry" />
        </mxCell>
        <mxCell id="vSkpdnjfzL6lSjrzOQnd-4" value="&lt;font style=&quot;font-size: 12px&quot;&gt;transfer,pay...&lt;/font&gt;" style="edgeLabel;html=1;align=center;verticalAlign=middle;resizable=0;points=[];" vertex="1" connectable="0" parent="vSkpdnjfzL6lSjrzOQnd-3">
          <mxGeometry x="-0.0182" y="2" relative="1" as="geometry">
            <mxPoint as="offset" />
          </mxGeometry>
        </mxCell>
        <mxCell id="vSkpdnjfzL6lSjrzOQnd-1" value="User" style="shape=umlActor;verticalLabelPosition=bottom;verticalAlign=top;html=1;outlineConnect=0;" vertex="1" parent="1">
          <mxGeometry x="70" y="160" width="30" height="60" as="geometry" />
        </mxCell>
        <mxCell id="vSkpdnjfzL6lSjrzOQnd-9" style="edgeStyle=orthogonalEdgeStyle;rounded=0;orthogonalLoop=1;jettySize=auto;html=1;exitX=1;exitY=0.5;exitDx=0;exitDy=0;entryX=0;entryY=0.5;entryDx=0;entryDy=0;" edge="1" parent="1" source="vSkpdnjfzL6lSjrzOQnd-2" target="vSkpdnjfzL6lSjrzOQnd-7">
          <mxGeometry relative="1" as="geometry" />
        </mxCell>
        <mxCell id="vSkpdnjfzL6lSjrzOQnd-2" value="event" style="rounded=0;whiteSpace=wrap;html=1;fillColor=#dae8fc;strokeColor=#6c8ebf;" vertex="1" parent="1">
          <mxGeometry x="210" y="170" width="80" height="40" as="geometry" />
        </mxCell>
        <mxCell id="vSkpdnjfzL6lSjrzOQnd-15" style="edgeStyle=orthogonalEdgeStyle;rounded=0;orthogonalLoop=1;jettySize=auto;html=1;exitX=1;exitY=0.5;exitDx=0;exitDy=0;entryX=0;entryY=0.5;entryDx=0;entryDy=0;" edge="1" parent="1" source="vSkpdnjfzL6lSjrzOQnd-7" target="vSkpdnjfzL6lSjrzOQnd-12">
          <mxGeometry relative="1" as="geometry" />
        </mxCell>
        <mxCell id="vSkpdnjfzL6lSjrzOQnd-7" value="uct" style="rounded=0;whiteSpace=wrap;html=1;fillColor=#fad7ac;strokeColor=#b46504;" vertex="1" parent="1">
          <mxGeometry x="370" y="155" width="140" height="70" as="geometry" />
        </mxCell>
        <mxCell id="vSkpdnjfzL6lSjrzOQnd-16" value="" style="group;dashed=1;dashPattern=1 2;" vertex="1" connectable="0" parent="1">
          <mxGeometry x="570" y="135" width="60" height="110" as="geometry" />
        </mxCell>
        <mxCell id="vSkpdnjfzL6lSjrzOQnd-11" value="欺诈" style="rounded=0;whiteSpace=wrap;html=1;dashed=1;" vertex="1" parent="vSkpdnjfzL6lSjrzOQnd-16">
          <mxGeometry width="60" height="30" as="geometry" />
        </mxCell>
        <mxCell id="vSkpdnjfzL6lSjrzOQnd-12" value="盗用" style="rounded=0;whiteSpace=wrap;html=1;dashed=1;" vertex="1" parent="vSkpdnjfzL6lSjrzOQnd-16">
          <mxGeometry y="40" width="60" height="30" as="geometry" />
        </mxCell>
        <mxCell id="vSkpdnjfzL6lSjrzOQnd-13" value="...." style="rounded=0;whiteSpace=wrap;html=1;dashed=1;" vertex="1" parent="vSkpdnjfzL6lSjrzOQnd-16">
          <mxGeometry y="80" width="60" height="30" as="geometry" />
        </mxCell>
        <mxCell id="vSkpdnjfzL6lSjrzOQnd-17" value="决策" style="whiteSpace=wrap;html=1;rounded=0;" vertex="1" parent="1">
          <mxGeometry x="690" y="170" width="70" height="40" as="geometry" />
        </mxCell>
        <mxCell id="vSkpdnjfzL6lSjrzOQnd-18" value="" style="edgeStyle=orthogonalEdgeStyle;rounded=0;orthogonalLoop=1;jettySize=auto;html=1;" edge="1" parent="1" source="vSkpdnjfzL6lSjrzOQnd-12" target="vSkpdnjfzL6lSjrzOQnd-17">
          <mxGeometry relative="1" as="geometry" />
        </mxCell>
        <mxCell id="vSkpdnjfzL6lSjrzOQnd-19" value="rule(规则)" style="rounded=0;whiteSpace=wrap;html=1;" vertex="1" parent="1">
          <mxGeometry x="405" y="330" width="70" height="40" as="geometry" />
        </mxCell>
        <mxCell id="vSkpdnjfzL6lSjrzOQnd-20" value="zmc(模型)" style="rounded=0;whiteSpace=wrap;html=1;" vertex="1" parent="1">
          <mxGeometry x="520" y="330" width="70" height="40" as="geometry" />
        </mxCell>
        <mxCell id="vSkpdnjfzL6lSjrzOQnd-21" value="" style="endArrow=classic;html=1;exitX=0.5;exitY=1;exitDx=0;exitDy=0;entryX=0.25;entryY=0;entryDx=0;entryDy=0;" edge="1" parent="1" source="vSkpdnjfzL6lSjrzOQnd-19" target="vSkpdnjfzL6lSjrzOQnd-30">
          <mxGeometry width="50" height="50" relative="1" as="geometry">
            <mxPoint x="610" y="640" as="sourcePoint" />
            <mxPoint x="510" y="390" as="targetPoint" />
          </mxGeometry>
        </mxCell>
        <mxCell id="vSkpdnjfzL6lSjrzOQnd-24" value="" style="endArrow=classic;html=1;" edge="1" parent="1">
          <mxGeometry width="50" height="50" relative="1" as="geometry">
            <mxPoint x="60" y="70" as="sourcePoint" />
            <mxPoint x="140" y="70" as="targetPoint" />
          </mxGeometry>
        </mxCell>
        <mxCell id="vSkpdnjfzL6lSjrzOQnd-25" value="同步" style="text;html=1;strokeColor=none;fillColor=none;align=center;verticalAlign=middle;whiteSpace=wrap;rounded=0;" vertex="1" parent="1">
          <mxGeometry x="150" y="60" width="40" height="20" as="geometry" />
        </mxCell>
        <mxCell id="vSkpdnjfzL6lSjrzOQnd-26" value="" style="endArrow=classic;html=1;dashed=1;" edge="1" parent="1">
          <mxGeometry width="50" height="50" relative="1" as="geometry">
            <mxPoint x="60" y="100" as="sourcePoint" />
            <mxPoint x="140" y="100" as="targetPoint" />
          </mxGeometry>
        </mxCell>
        <mxCell id="vSkpdnjfzL6lSjrzOQnd-27" value="异步" style="text;html=1;strokeColor=none;fillColor=none;align=center;verticalAlign=middle;whiteSpace=wrap;rounded=0;" vertex="1" parent="1">
          <mxGeometry x="150" y="90" width="40" height="20" as="geometry" />
        </mxCell>
        <mxCell id="vSkpdnjfzL6lSjrzOQnd-28" value="" style="endArrow=classic;html=1;exitX=0.5;exitY=1;exitDx=0;exitDy=0;entryX=0.5;entryY=0;entryDx=0;entryDy=0;edgeStyle=orthogonalEdgeStyle;curved=1;" edge="1" parent="1" source="vSkpdnjfzL6lSjrzOQnd-7" target="vSkpdnjfzL6lSjrzOQnd-20">
          <mxGeometry width="50" height="50" relative="1" as="geometry">
            <mxPoint x="110" y="390" as="sourcePoint" />
            <mxPoint x="160" y="340" as="targetPoint" />
            <Array as="points">
              <mxPoint x="440" y="260" />
              <mxPoint x="555" y="260" />
            </Array>
          </mxGeometry>
        </mxCell>
        <mxCell id="vSkpdnjfzL6lSjrzOQnd-29" value="" style="endArrow=classic;html=1;exitX=0.5;exitY=1;exitDx=0;exitDy=0;entryX=0.5;entryY=0;entryDx=0;entryDy=0;edgeStyle=orthogonalEdgeStyle;curved=1;" edge="1" parent="1" source="vSkpdnjfzL6lSjrzOQnd-7" target="vSkpdnjfzL6lSjrzOQnd-19">
          <mxGeometry width="50" height="50" relative="1" as="geometry">
            <mxPoint x="120" y="400" as="sourcePoint" />
            <mxPoint x="170" y="350" as="targetPoint" />
            <Array as="points">
              <mxPoint x="410" y="225" />
              <mxPoint x="410" y="330" />
            </Array>
          </mxGeometry>
        </mxCell>
        <mxCell id="vSkpdnjfzL6lSjrzOQnd-35" value="" style="endArrow=classic;html=1;exitX=0.5;exitY=1;exitDx=0;exitDy=0;entryX=0.75;entryY=0;entryDx=0;entryDy=0;" edge="1" parent="1" source="vSkpdnjfzL6lSjrzOQnd-20" target="vSkpdnjfzL6lSjrzOQnd-30">
          <mxGeometry width="50" height="50" relative="1" as="geometry">
            <mxPoint x="450" y="380" as="sourcePoint" />
            <mxPoint x="461.25" y="420" as="targetPoint" />
          </mxGeometry>
        </mxCell>
        <mxCell id="vSkpdnjfzL6lSjrzOQnd-42" style="edgeStyle=orthogonalEdgeStyle;curved=1;rounded=0;orthogonalLoop=1;jettySize=auto;html=1;exitX=0.5;exitY=1;exitDx=0;exitDy=0;entryX=0.75;entryY=0;entryDx=0;entryDy=0;dashed=1;" edge="1" parent="1" source="vSkpdnjfzL6lSjrzOQnd-37" target="vSkpdnjfzL6lSjrzOQnd-31">
          <mxGeometry relative="1" as="geometry" />
        </mxCell>
        <mxCell id="vSkpdnjfzL6lSjrzOQnd-37" value="uctproc(异步决策)" style="whiteSpace=wrap;html=1;rounded=0;" vertex="1" parent="1">
          <mxGeometry x="230" y="340" width="90" height="40" as="geometry" />
        </mxCell>
        <mxCell id="vSkpdnjfzL6lSjrzOQnd-39" value="" style="endArrow=classic;html=1;dashed=1;exitX=0.5;exitY=1;exitDx=0;exitDy=0;entryX=0.5;entryY=0;entryDx=0;entryDy=0;elbow=vertical;edgeStyle=orthogonalEdgeStyle;curved=1;" edge="1" parent="1" source="vSkpdnjfzL6lSjrzOQnd-2" target="vSkpdnjfzL6lSjrzOQnd-31">
          <mxGeometry width="50" height="50" relative="1" as="geometry">
            <mxPoint x="390" y="480" as="sourcePoint" />
            <mxPoint x="440" y="430" as="targetPoint" />
            <Array as="points">
              <mxPoint x="220" y="210" />
              <mxPoint x="220" y="280" />
              <mxPoint x="160" y="280" />
              <mxPoint x="160" y="390" />
              <mxPoint x="185" y="390" />
            </Array>
          </mxGeometry>
        </mxCell>
        <mxCell id="vSkpdnjfzL6lSjrzOQnd-41" value="" style="endArrow=classic;html=1;dashed=1;exitX=0.5;exitY=1;exitDx=0;exitDy=0;entryX=0.5;entryY=0;entryDx=0;entryDy=0;" edge="1" parent="1" source="vSkpdnjfzL6lSjrzOQnd-2" target="vSkpdnjfzL6lSjrzOQnd-37">
          <mxGeometry width="50" height="50" relative="1" as="geometry">
            <mxPoint x="390" y="480" as="sourcePoint" />
            <mxPoint x="440" y="430" as="targetPoint" />
          </mxGeometry>
        </mxCell>
        <mxCell id="vSkpdnjfzL6lSjrzOQnd-43" value="" style="endArrow=none;html=1;strokeWidth=3;" edge="1" parent="1">
          <mxGeometry width="50" height="50" relative="1" as="geometry">
            <mxPoint x="39" y="598" as="sourcePoint" />
            <mxPoint x="789" y="598" as="targetPoint" />
          </mxGeometry>
        </mxCell>
        <mxCell id="vSkpdnjfzL6lSjrzOQnd-50" value="&lt;b&gt;&lt;font style=&quot;font-size: 14px&quot; color=&quot;#3333ff&quot;&gt;写&lt;/font&gt;&lt;/b&gt;" style="html=1;shadow=0;dashed=0;align=center;verticalAlign=middle;shape=mxgraph.arrows2.arrow;dy=0.6;dx=40;direction=south;notch=0;" vertex="1" parent="1">
          <mxGeometry x="170" y="508" width="40" height="70" as="geometry" />
        </mxCell>
        <mxCell id="vSkpdnjfzL6lSjrzOQnd-52" value="&lt;b&gt;&lt;font style=&quot;font-size: 14px&quot; color=&quot;#6666ff&quot;&gt;读&lt;/font&gt;&lt;/b&gt;" style="html=1;shadow=0;dashed=0;align=center;verticalAlign=middle;shape=mxgraph.arrows2.arrow;dy=0.6;dx=40;direction=north;notch=0;" vertex="1" parent="1">
          <mxGeometry x="520" y="510" width="40" height="70" as="geometry" />
        </mxCell>
        <mxCell id="vSkpdnjfzL6lSjrzOQnd-54" value="" style="group;container=1;" vertex="1" connectable="0" parent="1">
          <mxGeometry x="130" y="618" width="493" height="70" as="geometry" />
        </mxCell>
        <mxCell id="vSkpdnjfzL6lSjrzOQnd-49" value="" style="group;container=1;" vertex="1" connectable="0" parent="vSkpdnjfzL6lSjrzOQnd-54">
          <mxGeometry x="99" width="394" height="70" as="geometry" />
        </mxCell>
        <mxCell id="vSkpdnjfzL6lSjrzOQnd-45" value="&lt;br&gt;mysql" style="shape=cylinder2;whiteSpace=wrap;html=1;boundedLbl=1;backgroundOutline=1;size=15;" vertex="1" parent="vSkpdnjfzL6lSjrzOQnd-49">
          <mxGeometry x="11" width="70" height="70" as="geometry" />
        </mxCell>
        <mxCell id="vSkpdnjfzL6lSjrzOQnd-46" value="&lt;br&gt;hbase" style="shape=cylinder2;whiteSpace=wrap;html=1;boundedLbl=1;backgroundOutline=1;size=15;" vertex="1" parent="vSkpdnjfzL6lSjrzOQnd-49">
          <mxGeometry x="110" width="70" height="70" as="geometry" />
        </mxCell>
        <mxCell id="vSkpdnjfzL6lSjrzOQnd-47" value="&lt;br&gt;odps" style="shape=cylinder2;whiteSpace=wrap;html=1;boundedLbl=1;backgroundOutline=1;size=15;" vertex="1" parent="vSkpdnjfzL6lSjrzOQnd-49">
          <mxGeometry x="220" width="70" height="70" as="geometry" />
        </mxCell>
        <mxCell id="vSkpdnjfzL6lSjrzOQnd-48" value="&lt;br&gt;geabase" style="shape=cylinder2;whiteSpace=wrap;html=1;boundedLbl=1;backgroundOutline=1;size=15;" vertex="1" parent="vSkpdnjfzL6lSjrzOQnd-49">
          <mxGeometry x="324" width="70" height="70" as="geometry" />
        </mxCell>
        <mxCell id="vSkpdnjfzL6lSjrzOQnd-53" value="&lt;br&gt;streaming" style="shape=cylinder2;whiteSpace=wrap;html=1;boundedLbl=1;backgroundOutline=1;size=15;" vertex="1" parent="vSkpdnjfzL6lSjrzOQnd-54">
          <mxGeometry width="70" height="70" as="geometry" />
        </mxCell>
        <mxCell id="vSkpdnjfzL6lSjrzOQnd-61" value="" style="group" vertex="1" connectable="0" parent="1">
          <mxGeometry x="360" y="410" width="360" height="85" as="geometry" />
        </mxCell>
        <mxCell id="vSkpdnjfzL6lSjrzOQnd-30" value="Feature Platform" style="rounded=0;whiteSpace=wrap;html=1;fillColor=#bac8d3;strokeColor=#23445d;" vertex="1" parent="vSkpdnjfzL6lSjrzOQnd-61">
          <mxGeometry width="360" height="55" as="geometry" />
        </mxCell>
        <mxCell id="vSkpdnjfzL6lSjrzOQnd-56" value="velocity" style="rounded=0;whiteSpace=wrap;html=1;" vertex="1" parent="vSkpdnjfzL6lSjrzOQnd-61">
          <mxGeometry x="120" y="55" width="120" height="30" as="geometry" />
        </mxCell>
        <mxCell id="vSkpdnjfzL6lSjrzOQnd-57" value="graph" style="rounded=0;whiteSpace=wrap;html=1;" vertex="1" parent="vSkpdnjfzL6lSjrzOQnd-61">
          <mxGeometry x="240" y="55" width="120" height="30" as="geometry" />
        </mxCell>
        <mxCell id="vSkpdnjfzL6lSjrzOQnd-60" value="宽表" style="rounded=0;whiteSpace=wrap;html=1;" vertex="1" parent="vSkpdnjfzL6lSjrzOQnd-61">
          <mxGeometry y="55" width="120" height="30" as="geometry" />
        </mxCell>
        <mxCell id="vSkpdnjfzL6lSjrzOQnd-69" value="" style="group" vertex="1" connectable="0" parent="1">
          <mxGeometry x="-120" y="578" width="80" height="110" as="geometry" />
        </mxCell>
        <mxCell id="vSkpdnjfzL6lSjrzOQnd-70" value="" style="group" vertex="1" connectable="0" parent="1">
          <mxGeometry x="30" y="417.5" width="310" height="70" as="geometry" />
        </mxCell>
        <mxCell id="vSkpdnjfzL6lSjrzOQnd-31" value="sdp" style="whiteSpace=wrap;html=1;rounded=0;fillColor=#b0e3e6;strokeColor=#0e8088;" vertex="1" parent="vSkpdnjfzL6lSjrzOQnd-70">
          <mxGeometry width="310" height="46.666666666666664" as="geometry" />
        </mxCell>
        <mxCell id="vSkpdnjfzL6lSjrzOQnd-62" value="实时数据" style="rounded=0;whiteSpace=wrap;html=1;" vertex="1" parent="vSkpdnjfzL6lSjrzOQnd-70">
          <mxGeometry y="46.666666666666664" width="103.33333333333334" height="23.333333333333332" as="geometry" />
        </mxCell>
        <mxCell id="vSkpdnjfzL6lSjrzOQnd-63" value="流数据" style="rounded=0;whiteSpace=wrap;html=1;" vertex="1" parent="vSkpdnjfzL6lSjrzOQnd-70">
          <mxGeometry x="103.33333333333334" y="46.666666666666664" width="103.33333333333334" height="23.333333333333332" as="geometry" />
        </mxCell>
        <mxCell id="vSkpdnjfzL6lSjrzOQnd-64" value="离线数据" style="rounded=0;whiteSpace=wrap;html=1;" vertex="1" parent="vSkpdnjfzL6lSjrzOQnd-70">
          <mxGeometry x="205.375" y="46.666666666666664" width="104.625" height="23.333333333333332" as="geometry" />
        </mxCell>
      </root>
    </mxGraphModel>
  </diagram>
</mxfile>
